# xmcd CD database file
# Generated: Die Apr 15 17:45:07 2003 by KSCD
# 
# Track frame offsets:
#       150
#       16435
#       28260
#       49450
#       64553
#       88458
#       106245
#       125530
#       144993
#       168345
#
# Disc length: 2514 seconds
#
# Revision: 1
# Processed by: cddbd v1.4PL0 Copyright (c) Steve Scherf et al.
# Submitted via: Kscd 1.3.3
#
DISCID=8b09d00a
DTITLE=RTL-Club - Happy Birthday
DYEAR=1900
DGENRE=
TTITLE0=Wonderful World
TTITLE1=Que Sera
TTITLE2=Let It Be
TTITLE3=Red Roses for ABlue Lady
TTITLE4=To Make My Life Beautiful
TTITLE5=When I Need You
TTITLE6=Careless Whisper
TTITLE7=Blue Eyes
TTITLE8=I Just Called To Say I Love You
TTITLE9=The Power Of Love
EXTD=
EXTT0=
EXTT1=
EXTT2=
EXTT3=
EXTT4=
EXTT5=
EXTT6=
EXTT7=
EXTT8=
EXTT9=
PLAYORDER=
